<?xml version="1.0" standalone="no"?>
<!DOCTYPE svg PUBLIC "-//W3C//DTD SVG 20010904//EN"
 "http://www.w3.org/TR/2001/REC-SVG-20010904/DTD/svg10.dtd">
<svg version="1.0" xmlns="http://www.w3.org/2000/svg"
 width="256.000000pt" height="256.000000pt" viewBox="0 0 256.000000 256.000000"
 preserveAspectRatio="xMidYMid meet">

<g transform="translate(0.000000,256.000000) scale(0.100000,-0.100000)"
fill="#000000" stroke="none">
<path d="M503 2469 c-218 -36 -376 -198 -413 -421 -6 -39 -10 -341 -10 -783 0
-587 3 -733 15 -788 40 -190 192 -342 384 -383 97 -20 1505 -20 1602 0 193 41
344 192 385 385 11 53 14 207 14 791 0 441 -4 750 -10 790 -32 203 -206 376
-410 409 -79 13 -1480 13 -1557 0z m1188 -395 c188 -55 337 -204 393 -393 21
-72 21 -230 0 -302 -30 -99 -73 -171 -153 -249 -118 -118 -234 -164 -410 -165
l-93 0 -43 -50 -43 -50 -76 -3 -76 -4 0 -65 c0 -67 -17 -116 -45 -127 -9 -3
-49 -6 -88 -6 l-72 0 3 -45 c5 -62 -5 -112 -29 -136 -18 -18 -34 -19 -234 -19
-276 0 -255 -17 -255 202 l0 162 266 267 266 266 -13 44 c-18 65 -16 203 5
273 57 193 197 337 386 397 73 24 236 25 311 3z"/>
<path d="M1635 1816 c-17 -7 -43 -28 -58 -45 -22 -26 -27 -43 -27 -84 0 -99
59 -153 157 -145 176 15 176 268 0 284 -23 3 -56 -2 -72 -10z"/>
</g>
</svg>
